<svg width="1440" height="900" viewBox="0 0 1440 900" fill="none" xmlns="http://www.w3.org/2000/svg" role="img" aria-labelledby="title desc">
  <title id="title">SiMa Neat three-step workflow infographic</title>
  <desc id="desc">An infographic showing the three main Neat steps: load a compiled model as a Model, compose an application as a Session, and build and run it on a SiMa SoC.</desc>
  <defs>
    <linearGradient id="bg" x1="120" y1="80" x2="1320" y2="820" gradientUnits="userSpaceOnUse">
      <stop offset="0" stop-color="#FFFFFF"/>
      <stop offset="1" stop-color="#F3F4F5"/>
    </linearGradient>
    <linearGradient id="panel" x1="0" y1="0" x2="0" y2="1">
      <stop offset="0" stop-color="#FFFFFF"/>
      <stop offset="1" stop-color="#F3F4F5"/>
    </linearGradient>
    <linearGradient id="accent" x1="0" y1="0" x2="1" y2="1">
      <stop offset="0" stop-color="#5998DD"/>
      <stop offset="1" stop-color="#C0E8DB"/>
    </linearGradient>
    <filter id="shadow" x="-8%" y="-24%" width="116%" height="170%" filterUnits="objectBoundingBox" color-interpolation-filters="sRGB">
      <feDropShadow dx="0" dy="12" stdDeviation="16" flood-color="#010F0E" flood-opacity="0.12"/>
    </filter>
    <filter id="cardShadow" x="-8%" y="-8%" width="116%" height="124%" filterUnits="objectBoundingBox" color-interpolation-filters="sRGB">
      <feDropShadow dx="0" dy="18" stdDeviation="22" flood-color="#010F0E" flood-opacity="0.1"/>
    </filter>
    <marker id="arrow" markerWidth="14" markerHeight="14" refX="10" refY="7" orient="auto" markerUnits="strokeWidth">
      <path d="M0 0L14 7L0 14V0Z" fill="#2A9C4F"/>
    </marker>
    <style>
      .sans { font-family: "Avenir Next", "Segoe UI", Arial, sans-serif; }
      .mono { font-family: "SFMono-Regular", "Menlo", "Consolas", monospace; }
      .title { font-size: 42px; font-weight: 700; fill: #010F0E; }
      .subtitle { font-size: 19px; font-weight: 500; fill: #010F0E; opacity: 0.72; }
      .step { font-size: 18px; font-weight: 700; fill: #F8FBFF; }
      .cardTitle { font-size: 26px; font-weight: 700; fill: #010F0E; }
      .cardBody { font-size: 17px; font-weight: 500; fill: #010F0E; opacity: 0.72; }
      .code { font-size: 15px; font-weight: 500; fill: #D4D4D4; }
      .codeLineNo { font-size: 13px; font-weight: 500; fill: #7D8590; }
      .codeTab { font-size: 12px; font-weight: 600; fill: #AEB9C5; }
      .footer { font-size: 16px; font-weight: 600; fill: #010F0E; opacity: 0.68; }
      .footerStrong { font-size: 16px; font-weight: 700; fill: #010F0E; }
    </style>
  </defs>

  <rect x="0" y="0" width="1440" height="900" rx="32" fill="url(#bg)"/>
  <circle cx="1220" cy="138" r="96" fill="#D1CEE6"/>
  <circle cx="180" cy="758" r="124" fill="#C0E8DB"/>
  <circle cx="1350" cy="742" r="74" fill="#A4CC2D"/>

  <text x="110" y="112" class="sans title">From compiled model to AI application</text>
  <text x="110" y="148" class="sans subtitle">SiMa Neat gives developers a clean path from model artifact to composed application runtime on the SoC.</text>

  <g filter="url(#cardShadow)">
    <rect x="84" y="214" width="388" height="454" rx="30" fill="url(#panel)"/>
    <rect x="112" y="242" width="128" height="42" rx="21" fill="url(#accent)"/>
    <text x="145" y="270" class="sans step">Step 1</text>
    <text x="112" y="330" class="sans cardTitle">Load a `Model`</text>
    <text x="112" y="366" class="sans cardBody">Start with a compiled model package</text>
    <text x="112" y="390" class="sans cardBody">and let Neat expose it as a reusable</text>
    <text x="112" y="414" class="sans cardBody">application building block.</text>

    <rect x="106" y="452" width="344" height="178" rx="20" fill="#1F232A"/>
    <rect x="106" y="452" width="34" height="178" rx="20" fill="#181C22"/>
    <rect x="132" y="452" width="318" height="178" rx="20" fill="#1F232A"/>
    <text x="123" y="514" class="mono codeLineNo">1</text>
    <text x="123" y="542" class="mono codeLineNo">2</text>
    <text x="123" y="576" class="mono codeLineNo">3</text>
    <text x="150" y="512" class="mono code">
      <tspan x="150" y="512">simaai::neat::Model model(</tspan>
      <tspan x="150" y="540">  "resnet_50_mpk.tar.gz");</tspan>
      <tspan x="150" y="574">auto result = model.run(rgb);</tspan>
    </text>

    <rect x="106" y="646" width="344" height="16" rx="8" fill="#E8E9EB"/>
    <rect x="106" y="646" width="221" height="16" rx="8" fill="#5998DD"/>
    <rect x="84" y="672" width="388" height="42" rx="21" fill="#FFFFFF" fill-opacity="0.8" stroke="#5998DD" stroke-opacity="0.28"/>
    <text x="108" y="698" class="sans footerStrong">A runnable and app-ready</text>
    <text x="315" y="698" class="sans footer">model component</text>
  </g>

  <g filter="url(#cardShadow)">
    <rect x="526" y="214" width="388" height="454" rx="30" fill="url(#panel)"/>
    <rect x="554" y="242" width="128" height="42" rx="21" fill="url(#accent)"/>
    <text x="587" y="270" class="sans step">Step 2</text>
    <text x="554" y="330" class="sans cardTitle">Compose a `Session`</text>
    <text x="554" y="366" class="sans cardBody">Assemble model stages, inputs, outputs,</text>
    <text x="554" y="390" class="sans cardBody">and application logic into one coherent</text>
    <text x="554" y="414" class="sans cardBody">AI application workflow.</text>

    <rect x="548" y="452" width="344" height="178" rx="20" fill="#1F232A"/>
    <rect x="548" y="452" width="34" height="178" rx="20" fill="#181C22"/>
    <rect x="574" y="452" width="318" height="178" rx="20" fill="#1F232A"/>
    <text x="565" y="506" class="mono codeLineNo">1</text>
    <text x="565" y="540" class="mono codeLineNo">2</text>
    <text x="565" y="574" class="mono codeLineNo">3</text>
    <text x="565" y="608" class="mono codeLineNo">4</text>
    <text x="592" y="504" class="mono code">
      <tspan x="592" y="504">simaai::neat::Session session;</tspan>
      <tspan x="592" y="538">session.add(Input());</tspan>
      <tspan x="592" y="572">session.add(model.session());</tspan>
      <tspan x="592" y="606">session.add(Output());</tspan>
    </text>

    <rect x="548" y="646" width="344" height="16" rx="8" fill="#E8E9EB"/>
    <rect x="548" y="646" width="279" height="16" rx="8" fill="#C0E8DB"/>
    <rect x="526" y="672" width="388" height="42" rx="21" fill="#FFFFFF" fill-opacity="0.8" stroke="#C0E8DB" stroke-opacity="0.36"/>
    <text x="550" y="698" class="sans footerStrong">Result</text>
    <text x="608" y="698" class="sans footer">a complete application description</text>
  </g>

  <g filter="url(#cardShadow)">
    <rect x="968" y="214" width="388" height="454" rx="30" fill="url(#panel)"/>
    <rect x="996" y="242" width="128" height="42" rx="21" fill="url(#accent)"/>
    <text x="1029" y="270" class="sans step">Step 3</text>
    <text x="996" y="330" class="sans cardTitle">Build and `Run`</text>
    <text x="996" y="366" class="sans cardBody">Execute the composed application with</text>
    <text x="996" y="390" class="sans cardBody">Neat runtime controls so it performs</text>
    <text x="996" y="414" class="sans cardBody">efficiently on the SiMa SoC.</text>

    <rect x="990" y="452" width="344" height="178" rx="20" fill="#1F232A"/>
    <rect x="990" y="452" width="34" height="178" rx="20" fill="#181C22"/>
    <rect x="1016" y="452" width="318" height="178" rx="20" fill="#1F232A"/>
    <text x="1007" y="506" class="mono codeLineNo">1</text>
    <text x="1007" y="534" class="mono codeLineNo">2</text>
    <text x="1007" y="574" class="mono codeLineNo">3</text>
    <text x="1007" y="602" class="mono codeLineNo">4</text>
    <text x="1034" y="504" class="mono code">
      <tspan x="1034" y="504">auto run = session.build(</tspan>
      <tspan x="1034" y="532">  input_tensor, RunMode::Sync);</tspan>
      <tspan x="1034" y="572">auto out = run.push_and_pull(</tspan>
      <tspan x="1034" y="600">  input_tensor);</tspan>
    </text>

    <rect x="990" y="646" width="344" height="16" rx="8" fill="#E8E9EB"/>
    <rect x="990" y="646" width="303" height="16" rx="8" fill="#2A9C4F"/>
    <rect x="968" y="672" width="388" height="42" rx="21" fill="#FFFFFF" fill-opacity="0.8" stroke="#2A9C4F" stroke-opacity="0.28"/>
    <text x="992" y="698" class="sans footerStrong">Outcome</text>
    <text x="1066" y="698" class="sans footer">a performant AI application on-device</text>
  </g>

  <line x1="473" y1="441" x2="525" y2="441" stroke="#2A9C4F" stroke-width="6" stroke-linecap="round" marker-end="url(#arrow)"/>
  <line x1="915" y1="441" x2="967" y2="441" stroke="#2A9C4F" stroke-width="6" stroke-linecap="round" marker-end="url(#arrow)"/>

  <g filter="url(#shadow)">
    <rect x="220" y="748" width="1000" height="100" rx="28" fill="#FFFFFF" stroke="#D6E2EF"/>
    <rect x="220" y="748" width="1000" height="8" rx="4" fill="url(#accent)"/>
    <text x="262" y="796" class="sans" font-size="26" font-weight="700" fill="#010F0E">Agent-ready development</text>
    <text x="262" y="826" class="sans" font-size="16" font-weight="600" fill="#35536F">Built to work with agentic workflows for complete end-to-end application building, fast exploration, and debugging.</text>
  </g>
</svg>
